<?xml version="1.0" encoding="utf-8"?>
<!-- Generator: Adobe Illustrator 18.1.1, SVG Export Plug-In . SVG Version: 6.00 Build 0)  -->
<svg version="1.1" id="Layer_1" xmlns="http://www.w3.org/2000/svg" xmlns:xlink="http://www.w3.org/1999/xlink" x="0px" y="0px"
	 viewBox="-73.5 -14 167 48" enable-background="new -73.5 -14 167 48" xml:space="preserve">
<g>
	<title>logo_palacio do gelo</title>
	<path d="M-15.3,12.8l-3-5.8l-0.2-0.3c0-0.1,0-0.2,0-0.2c0-0.1,0-0.2,0.1-0.2c0.1,0,0.1-0.1,0.2-0.1V5.9h-2.4v0.3
		c0.1,0,0.1,0,0.2,0.1c0.1,0,0.1,0.1,0.1,0.2c0,0.1,0,0.2-0.1,0.3c0,0.1-0.1,0.2-0.2,0.3l-2.6,5.5c-0.1,0.1-0.1,0.2-0.2,0.4
		c-0.1,0.1-0.2,0.2-0.3,0.2v0.3h2v-0.2c-0.2,0-0.3-0.1-0.3-0.2c0-0.2,0.1-0.3,0.1-0.4l0.5-1h3.5l0.5,1.1c0.1,0.1,0.1,0.2,0.1,0.4
		c0,0.1,0,0.1-0.1,0.1c0,0-0.1,0-0.1,0v0.3h2.5v-0.3c-0.1,0-0.2-0.1-0.3-0.1C-15.2,13-15.2,12.9-15.3,12.8z M-20.8,10.5l1.3-2.7
		l1.2,2.7H-20.8L-20.8,10.5z"/>
	<path d="M-6.4,13.4c0.1,0,0.2,0.1,0.1,0.2H-6v-2h-0.3c0,0.1-0.1,0.2-0.1,0.3c-0.1,0.1-0.2,0.1-0.3,0.1h-4.7V6.4
		c0-0.2,0.1-0.3,0.4-0.3V5.9h-2.5v0.3c0.3,0,0.4,0.1,0.4,0.3v6.5c0,0.2-0.1,0.3-0.4,0.3v0.3h6.8C-6.6,13.4-6.5,13.4-6.4,13.4z"/>
	<polygon points="1.7,3.4 -0.2,3.4 -1.5,5.4 -0.3,5.4 	"/>
	<path d="M-23.9,8.1c0-0.8-0.3-1.4-0.8-1.7c-0.7-0.4-1.4-0.6-2.2-0.5h-5v0.3c0.4,0,0.5,0.1,0.5,0.3v6.5c0,0.2-0.2,0.3-0.5,0.3v0.3
		h2.6v-0.3c-0.3,0-0.5-0.1-0.5-0.3v-2.5h2.9c0.8,0,1.5-0.1,2.2-0.5C-24.1,9.5-23.9,8.9-23.9,8.1z M-25.8,8.9
		c-0.2,0.1-0.5,0.2-0.8,0.2h-3V7.2h3c0.3,0,0.6,0.1,0.8,0.2c0.2,0.2,0.4,0.4,0.3,0.7C-25.5,8.4-25.6,8.7-25.8,8.9L-25.8,8.9z"/>
	<path d="M-2.7,13.2C-2.9,13.2-3,13.1-3,13c0-0.2,0.1-0.3,0.1-0.4l0.5-1h3.5l0.5,1.1c0.1,0.1,0.1,0.2,0.1,0.4c0,0.1,0,0.1-0.1,0.1
		c0,0-0.1,0-0.1,0v0.3h2.5v-0.3c-0.1,0-0.2-0.1-0.3-0.1c-0.1-0.1-0.1-0.1-0.2-0.2L0.7,7L0.5,6.7c0-0.1,0-0.2,0-0.2
		c0-0.1,0-0.2,0.1-0.2c0.1,0,0.1-0.1,0.2-0.1V5.9h-2.4v0.3c0.1,0,0.1,0,0.2,0.1c0.1,0,0.1,0.1,0.1,0.2c0,0.1,0,0.2-0.1,0.3
		c0,0.1-0.1,0.2-0.2,0.3l-2.6,5.5c-0.1,0.1-0.1,0.2-0.2,0.4c-0.1,0.1-0.2,0.2-0.3,0.2v0.3h2L-2.7,13.2L-2.7,13.2z M-0.5,7.9l1.2,2.7
		h-2.5L-0.5,7.9z"/>
	<path d="M73.4,12c-0.1,0.1-0.2,0.1-0.3,0.1h-4.8v-2h2.8c0.2,0,0.3,0,0.4,0.1c0.1,0.1,0.2,0.3,0.2,0.4h0.3V8.4h-0.3
		c0,0.2,0,0.3-0.2,0.4c-0.1,0.1-0.3,0.1-0.4,0.1h-2.8V7.1h4.6c0.1,0,0.3,0,0.4,0.1c0.1,0,0.1,0.1,0.1,0.2h0.3V5.6h-0.3
		c0,0.1,0,0.2-0.1,0.3c-0.1,0.1-0.3,0.1-0.4,0.1h-6.5v0.3c0.1,0,0.1,0,0.2,0.1c0.1,0,0.1,0.1,0.1,0.2v6.5c0,0.1,0,0.1-0.1,0.2
		c0,0-0.1,0.1-0.2,0.1v0.3H73c0.1,0,0.2,0,0.3,0c0.1,0,0.2,0.1,0.1,0.2h0.3v-2h-0.3C73.5,11.8,73.5,11.9,73.4,12z"/>
	<path d="M14.5,6.2c0.2,0,0.4,0.1,0.4,0.3v6.5c0,0.2-0.1,0.3-0.4,0.3v0.3h2.4v-0.3c-0.2,0-0.4-0.1-0.4-0.3V6.4
		c0-0.2,0.1-0.3,0.4-0.3V5.9h-2.4L14.5,6.2L14.5,6.2z"/>
	<path d="M25.8,6.8c-0.5-0.3-1-0.6-1.5-0.7c-1-0.3-2.2-0.3-3.2,0c-0.5,0.1-1,0.4-1.5,0.7c-0.4,0.3-0.8,0.7-1.1,1.2
		c-0.3,0.5-0.4,1.1-0.4,1.7c0,0.6,0.1,1.2,0.4,1.7c0.3,0.5,0.7,0.9,1.1,1.2c0.4,0.3,1,0.5,1.5,0.7c1,0.3,2.1,0.3,3.2,0
		c0.5-0.1,1-0.4,1.5-0.7c0.4-0.3,0.8-0.7,1.1-1.2c0.3-0.5,0.4-1.1,0.4-1.7c0-0.6-0.1-1.2-0.4-1.7C26.6,7.5,26.2,7.1,25.8,6.8z
		 M25.5,10.7c-0.2,0.3-0.4,0.6-0.7,0.8c-0.3,0.2-0.6,0.4-1,0.5c-0.7,0.2-1.5,0.2-2.2,0c-0.4-0.1-0.7-0.3-1-0.5
		c-0.3-0.2-0.5-0.5-0.7-0.8c-0.4-0.7-0.4-1.5,0-2.1c0.2-0.3,0.4-0.6,0.7-0.8c0.3-0.2,0.6-0.4,1-0.5c0.7-0.2,1.5-0.2,2.2,0
		c0.3,0.1,0.7,0.3,1,0.5c0.3,0.2,0.5,0.5,0.7,0.8C25.8,9.3,25.8,10.1,25.5,10.7z"/>
	<path d="M49.4,6.8c-0.5-0.3-1-0.6-1.5-0.7c-1-0.3-2.2-0.3-3.2,0c-0.5,0.1-1,0.4-1.5,0.7c-0.4,0.3-0.8,0.7-1.1,1.2
		c-0.3,0.5-0.4,1.1-0.4,1.7c0,0.6,0.1,1.2,0.4,1.7c0.3,0.5,0.7,0.9,1.1,1.2c0.4,0.3,1,0.5,1.5,0.7c1,0.3,2.1,0.3,3.2,0
		c0.5-0.1,1-0.4,1.5-0.7c0.4-0.3,0.8-0.7,1.1-1.2c0.3-0.5,0.4-1.1,0.4-1.7c0-0.6-0.1-1.2-0.4-1.7C50.3,7.5,49.9,7.1,49.4,6.8z
		 M49.1,10.7c-0.2,0.3-0.4,0.6-0.7,0.8c-0.3,0.2-0.6,0.4-1,0.5c-0.7,0.2-1.5,0.2-2.2,0c-0.4-0.1-0.7-0.3-1-0.5
		c-0.3-0.2-0.5-0.5-0.7-0.8c-0.4-0.7-0.4-1.5,0-2.1C43.8,8.3,44,8,44.3,7.8c0.3-0.2,0.6-0.4,1-0.5c0.7-0.2,1.5-0.2,2.2,0
		c0.4,0.1,0.7,0.3,1,0.5c0.3,0.2,0.5,0.5,0.7,0.8C49.5,9.3,49.5,10.1,49.1,10.7z"/>
	<path d="M39.6,6.8c-0.3-0.3-0.7-0.6-1.2-0.7c-0.5-0.2-1-0.2-1.5-0.2h-4.7v0.3c0.1,0,0.3,0,0.3,0.2c0,0,0,0,0,0.1v6.5
		c0,0.1-0.1,0.3-0.3,0.3c0,0,0,0-0.1,0v0.3h4.7c0.5,0,1-0.1,1.5-0.2c0.4-0.1,0.8-0.4,1.2-0.7c0.3-0.3,0.6-0.7,0.8-1.2
		c0.2-0.5,0.3-1.1,0.3-1.7c0-0.6-0.1-1.1-0.3-1.7C40.2,7.6,39.9,7.2,39.6,6.8z M38.8,10.9c-0.1,0.3-0.3,0.6-0.5,0.8
		c-0.2,0.2-0.5,0.3-0.8,0.4c-0.4,0.1-0.8,0.1-1.2,0.1h-2.2v-5h2.2c0.4,0,0.8,0,1.2,0.1c0.3,0.1,0.6,0.2,0.8,0.4
		c0.2,0.2,0.4,0.5,0.5,0.8C39,8.8,39,9.3,39,9.7C39,10.1,39,10.5,38.8,10.9z"/>
	<path d="M11.9,10.9c0,0,0.1,0.1,0.1,0.2c0,0.2-0.1,0.3-0.3,0.4c-0.2,0.1-0.4,0.3-0.7,0.4c-0.3,0.1-0.6,0.2-0.9,0.3
		c-0.3,0.1-0.6,0.1-1,0.1c-0.4,0-0.8-0.1-1.2-0.2c-0.3-0.1-0.7-0.3-1-0.5c-0.3-0.2-0.5-0.5-0.6-0.8C6.2,10.4,6.1,10,6.1,9.6
		c0-0.4,0.1-0.7,0.2-1.1C6.5,8.2,6.8,7.9,7,7.7c0.3-0.2,0.6-0.4,1-0.5C8.4,7.1,8.7,7,9.1,7.1c0.3,0,0.5,0,0.8,0.1
		c0.3,0.1,0.5,0.1,0.8,0.2c0.2,0.1,0.4,0.2,0.6,0.3c0.1,0.1,0.2,0.2,0.3,0.3c0,0.1,0,0.1,0,0.2l0.1,0.1l1.1-1.7l-0.2-0.2l-0.1,0.1
		c0,0-0.1,0.1-0.1,0.1c-0.1,0-0.2-0.1-0.3-0.1c-0.2-0.1-0.5-0.2-0.7-0.2c-0.3-0.1-0.6-0.2-1-0.2C10,5.8,9.6,5.8,9.2,5.8
		C8.6,5.8,8,5.9,7.4,6.1C6.9,6.2,6.4,6.5,6,6.8c-1.3,1.1-1.7,3-1,4.5c0.2,0.5,0.6,0.9,1,1.2c0.4,0.3,0.9,0.6,1.5,0.7
		c0.6,0.2,1.1,0.2,1.7,0.2c0.4,0,0.9-0.1,1.3-0.2c0.4-0.1,0.8-0.2,1.1-0.4c0.3-0.1,0.6-0.3,0.8-0.4c0.1-0.1,0.3-0.1,0.4-0.2H13
		l0.1-0.1l-0.9-1.5L11.9,10.9z"/>
	<path d="M83,12c-0.1,0.1-0.2,0.1-0.3,0.1h-4.7V6.4c0-0.2,0.1-0.3,0.4-0.3V5.9h-2.5v0.3c0.3,0,0.4,0.1,0.4,0.3v6.5
		c0,0.2-0.1,0.3-0.4,0.3v0.3h6.8c0.1,0,0.2,0,0.3,0c0.1,0,0.2,0.1,0.1,0.2h0.3v-2h-0.3C83.2,11.8,83.1,11.9,83,12z"/>
	<path d="M60.4,9.6c-0.1-0.1-0.1-0.2-0.1-0.3H60v1.8h0.3c0-0.1,0-0.3,0.1-0.4c0.1-0.1,0.2-0.1,0.3-0.1h1.8v1.2
		c-0.4,0.1-0.7,0.2-1.1,0.3c-0.5,0.1-1,0.1-1.5,0.1c-0.4,0-0.7,0-1.1-0.1c-0.3-0.1-0.6-0.3-0.9-0.5c-0.3-0.2-0.5-0.5-0.7-0.8
		c-0.2-0.4-0.3-0.8-0.2-1.2c0-0.4,0.1-0.8,0.2-1.2c0.2-0.3,0.4-0.6,0.7-0.8c0.3-0.2,0.6-0.4,0.9-0.5c0.3-0.1,0.7-0.2,1.1-0.2
		c0.3,0,0.6,0,0.9,0.1c0.3,0,0.6,0.1,0.9,0.2c0.2,0.1,0.5,0.2,0.7,0.3c0.2,0.1,0.3,0.2,0.3,0.4c0,0.1,0,0.1,0,0.2l0.3,0.1l0.8-1.9
		l-0.2-0.1c0,0-0.1,0.1-0.1,0.1c-0.1,0-0.1,0.1-0.2,0.1c-0.1,0-0.2,0-0.4-0.1c-0.2-0.1-0.5-0.1-0.7-0.2c-0.3-0.1-0.7-0.1-1-0.2
		c-0.4-0.1-0.8-0.1-1.2-0.1c-0.6,0-1.2,0.1-1.8,0.3c-0.5,0.2-1,0.4-1.4,0.8c-0.4,0.3-0.7,0.7-0.9,1.2c-0.2,0.5-0.3,1.1-0.3,1.6
		c0,0.6,0.1,1.1,0.3,1.6c0.2,0.5,0.5,0.9,0.9,1.2c0.4,0.3,0.9,0.6,1.4,0.7c0.6,0.2,1.2,0.2,1.8,0.2c0.3,0,0.7,0,1,0
		c0.4,0,0.7-0.1,1.1-0.1c0.4-0.1,0.7-0.2,1.1-0.3c0.4-0.1,0.7-0.3,1-0.5v-0.2l-0.2-0.1c-0.1,0-0.1-0.1-0.1-0.2v-1.6
		c0-0.1,0-0.2,0.1-0.2c0.1-0.1,0.2-0.1,0.4-0.1V9.7h-3.6C60.6,9.7,60.5,9.7,60.4,9.6z"/>
	<path d="M92.7,8c-0.3-0.5-0.6-0.9-1.1-1.2c-0.5-0.3-1-0.6-1.5-0.7c-1-0.3-2.2-0.3-3.2,0c-0.5,0.1-1,0.4-1.5,0.7
		C85,7.1,84.7,7.5,84.4,8c-0.3,0.5-0.4,1.1-0.4,1.7c0,0.6,0.1,1.2,0.4,1.7c0.3,0.5,0.7,0.9,1.1,1.2c0.4,0.3,1,0.5,1.5,0.7
		c1,0.3,2.1,0.3,3.2,0c0.5-0.1,1-0.4,1.5-0.7c0.4-0.3,0.8-0.7,1.1-1.2c0.3-0.5,0.4-1.1,0.4-1.7C93.2,9.1,93,8.5,92.7,8z M91.3,10.7
		c-0.2,0.3-0.4,0.6-0.7,0.8c-0.3,0.2-0.6,0.4-1,0.5c-0.7,0.2-1.5,0.2-2.2,0c-0.4-0.1-0.7-0.3-1-0.5c-0.3-0.2-0.5-0.5-0.7-0.8
		c-0.4-0.7-0.4-1.5,0-2.1C86,8.3,86.2,8,86.5,7.8c0.3-0.2,0.6-0.4,1-0.5c0.7-0.2,1.5-0.2,2.2,0c0.4,0.1,0.7,0.3,1,0.5
		c0.3,0.2,0.5,0.5,0.7,0.8C91.7,9.3,91.7,10.1,91.3,10.7z"/>
	<path d="M-28.1,20.2c-0.2-0.1-0.3-0.2-0.5-0.2c-0.2,0-0.4-0.1-0.6-0.1l-0.6,0c-0.2,0-0.4,0-0.5-0.1c-0.1,0-0.3-0.1-0.4-0.1
		c-0.1-0.1-0.1-0.2-0.1-0.3c0-0.1,0-0.2,0.1-0.2c0.1-0.1,0.2-0.1,0.3-0.2c0.1,0,0.2-0.1,0.3-0.1c0.1,0,0.2,0,0.4,0
		c0.2,0,0.3,0,0.5,0c0.1,0,0.3,0.1,0.4,0.1c0.1,0,0.2,0.1,0.3,0.2c0.1,0,0.2,0.1,0.2,0.2c0,0.1,0.1,0.1,0.1,0.2l0.1,0l0.6-1
		l-0.1-0.1c0,0-0.1,0.1-0.2,0c-0.1,0-0.2,0-0.3-0.1c-0.1,0-0.2-0.1-0.4-0.1c-0.2-0.1-0.4-0.1-0.5-0.1c-0.2,0-0.5-0.1-0.7-0.1
		c-0.3,0-0.6,0-0.9,0.1c-0.2,0.1-0.4,0.2-0.6,0.3c-0.1,0.1-0.3,0.3-0.3,0.4c-0.1,0.2-0.1,0.3-0.1,0.5c0,0.2,0,0.4,0.1,0.6
		c0.1,0.1,0.2,0.3,0.4,0.4c0.2,0.1,0.3,0.2,0.5,0.2c0.2,0,0.4,0.1,0.6,0.1l0.6,0c0.2,0,0.4,0,0.5,0c0.1,0,0.3,0.1,0.4,0.1
		c0.1,0.1,0.2,0.2,0.1,0.3c0,0.1-0.1,0.2-0.2,0.3c-0.1,0.1-0.2,0.1-0.4,0.2c-0.1,0-0.3,0.1-0.4,0.1c-0.1,0-0.3,0-0.4,0
		c-0.1,0-0.3,0-0.4,0c-0.2,0-0.3-0.1-0.5-0.1c-0.1,0-0.3-0.1-0.4-0.2c-0.1,0-0.2-0.1-0.2-0.2c0,0,0-0.1,0-0.1l-0.1,0l-0.4,1l0.1,0.1
		c0,0,0.1-0.1,0.1-0.1c0.1,0,0.1,0,0.2,0.1l0.3,0.1c0.2,0.1,0.3,0.1,0.5,0.1c0.3,0,0.5,0.1,0.8,0c0.2,0,0.5,0,0.7,0
		c0.2,0,0.5-0.1,0.7-0.2c0.2-0.1,0.4-0.2,0.5-0.4c0.2-0.2,0.2-0.4,0.2-0.7c0-0.2,0-0.4-0.1-0.6C-27.8,20.4-27.9,20.3-28.1,20.2z"/>
	<path d="M-9.7,18.6c-0.4-0.2-0.8-0.3-1.2-0.3h-2.8v0.1c0.2,0,0.3,0,0.3,0.1v3.7c0,0.1-0.1,0.1-0.3,0.1v0.1h1.5v-0.1
		c-0.2,0-0.3,0-0.3-0.1v-1.4h1.6c0.4,0,0.8-0.1,1.2-0.3c0.3-0.2,0.5-0.6,0.4-1C-9.3,19.1-9.4,18.8-9.7,18.6z M-10.4,19.9
		c-0.1,0.1-0.3,0.1-0.5,0.1h-1.7v-1h1.7c0.2,0,0.3,0,0.5,0.1C-10.2,19.3-10.1,19.6-10.4,19.9C-10.4,19.9-10.4,19.9-10.4,19.9
		L-10.4,19.9z"/>
	<path d="M-4.4,18.6c-0.4-0.2-0.8-0.3-1.2-0.3h-2.8v0.1c0.2,0,0.3,0,0.3,0.1v3.7c0,0.1-0.1,0.1-0.3,0.1v0.1h1.5v-0.1
		c-0.2,0-0.3,0-0.3-0.1v-1.4h1.6c0.4,0,0.8-0.1,1.2-0.3c0.3-0.2,0.5-0.6,0.4-1C-3.9,19.1-4,18.8-4.4,18.6z M-5,19.9
		C-5.2,20-5.3,20-5.5,20h-1.7v-1h1.7c0.2,0,0.3,0,0.5,0.1C-4.8,19.3-4.8,19.6-5,19.9C-5,19.9-5,19.9-5,19.9L-5,19.9z"/>
	<path d="M8.5,20.4c0,0-0.1-0.1-0.1-0.2H8.3v1h0.1c0-0.1,0-0.2,0.1-0.2c0,0,0.1-0.1,0.2,0h1v0.7c-0.2,0.1-0.4,0.1-0.6,0.2
		c-0.3,0.1-0.5,0.1-0.8,0.1c-0.2,0-0.4,0-0.6-0.1c-0.2-0.1-0.4-0.1-0.5-0.3c-0.2-0.1-0.3-0.3-0.4-0.5c-0.1-0.2-0.1-0.4-0.1-0.7
		c0-0.2,0-0.5,0.1-0.7c0.1-0.2,0.2-0.3,0.4-0.5c0.2-0.1,0.3-0.2,0.5-0.3c0.2-0.1,0.4-0.1,0.6-0.1c0.2,0,0.3,0,0.5,0
		C8.9,19,9.1,19,9.2,19c0.1,0,0.3,0.1,0.4,0.2c0.1,0,0.1,0.1,0.2,0.2c0,0,0,0.1,0,0.1l0.1,0l0.5-1.1l-0.1-0.1l-0.1,0.1
		c0,0-0.1,0-0.1,0c-0.1,0-0.1,0-0.2,0c-0.1,0-0.3-0.1-0.4-0.1c-0.2,0-0.4-0.1-0.6-0.1c-0.2,0-0.4,0-0.7,0c-0.4,0-0.7,0-1,0.2
		c-0.3,0.1-0.6,0.2-0.8,0.4C6.2,19,6,19.2,5.9,19.5c-0.1,0.3-0.2,0.6-0.2,0.9c0,0.3,0.1,0.6,0.2,0.9C6,21.6,6.2,21.8,6.4,22
		c0.2,0.2,0.5,0.3,0.8,0.4c0.3,0.1,0.7,0.1,1,0.1c0.2,0,0.4,0,0.6,0c0.2,0,0.4,0,0.6-0.1c0.2,0,0.4-0.1,0.6-0.2
		c0.2-0.1,0.4-0.2,0.6-0.3v-0.1l-0.1-0.1c0,0-0.1-0.1,0-0.1v-0.9c0,0,0-0.1,0-0.1c0.1,0,0.1-0.1,0.2-0.1v-0.1h-2
		C8.6,20.4,8.5,20.4,8.5,20.4z"/>
	<path d="M-22.7,18.4c0.1,0,0.2,0,0.2,0.1c0,0,0,0,0,0v1.4h-2.6v-1.4c0,0,0-0.1,0-0.1c0,0,0.1,0,0.1,0v-0.1h-1.2v0.1
		c0.1,0,0.1,0,0.2,0.1c0,0,0,0,0,0v3.7c0,0.1,0,0.1-0.1,0.1c0,0,0,0,0,0v0.1h1.2v-0.1c0,0-0.1,0-0.1,0c0,0,0-0.1,0-0.1v-1.5h2.6v1.5
		c0,0.1-0.1,0.1-0.1,0.2c0,0,0,0,0,0v0.1h1.2v-0.1c0,0-0.1,0-0.1,0c0,0,0-0.1,0-0.1v-3.7c0,0,0-0.1,0-0.1c0,0,0.1,0,0.1,0v-0.2h-1.2
		L-22.7,18.4L-22.7,18.4z"/>
	<path d="M-3,18.4c0.1,0,0.2,0,0.2,0.1v3.7c0,0.1-0.1,0.1-0.2,0.1v0.1h1.3v-0.1c-0.1,0-0.2,0-0.2-0.1v-3.7c0-0.1,0.1-0.1,0.2-0.1
		v-0.2H-3V18.4L-3,18.4z"/>
	<path d="M3.4,18.4c0.1,0,0.2,0,0.2,0.1v2.6l-2.3-2.4c-0.1-0.1-0.1-0.1-0.2-0.2c0,0,0-0.1,0-0.1c0,0,0,0,0,0v-0.1h-1.4v0.1
		c0.1,0,0.1,0,0.2,0.1c0,0,0,0,0,0v3.7c0,0.1,0,0.1-0.1,0.1c0,0,0,0,0,0v0.1H1v-0.1c-0.1,0-0.2,0-0.2-0.1v-2.7l2.5,2.6
		c0.1,0,0.1,0.1,0.1,0.2c0,0,0,0.1-0.1,0.1v0.1h1.3v-0.1c-0.1,0-0.1,0-0.2-0.1c0,0,0,0,0,0v-3.7c0-0.1,0-0.1,0.1-0.1c0,0,0,0,0,0
		v-0.2H3.4L3.4,18.4L3.4,18.4z"/>
	<path d="M-15.8,18.8c-0.3-0.2-0.5-0.3-0.8-0.4c-0.6-0.2-1.2-0.2-1.8,0c-0.3,0.1-0.6,0.2-0.8,0.4c-0.3,0.2-0.5,0.4-0.6,0.7
		c-0.2,0.3-0.3,0.6-0.2,1c0,0.3,0.1,0.7,0.2,1c0.2,0.3,0.4,0.5,0.6,0.7c0.3,0.2,0.5,0.3,0.8,0.4c0.6,0.2,1.2,0.2,1.8,0
		c0.3-0.1,0.6-0.2,0.8-0.4c0.3-0.2,0.5-0.4,0.6-0.7c0.2-0.3,0.3-0.6,0.2-1c0-0.3-0.1-0.7-0.2-1C-15.4,19.2-15.6,18.9-15.8,18.8z
		 M-16,21c-0.1,0.2-0.2,0.3-0.4,0.5c-0.2,0.1-0.4,0.2-0.5,0.3c-0.4,0.1-0.8,0.1-1.2,0c-0.2-0.1-0.4-0.2-0.6-0.3
		c-0.2-0.1-0.3-0.3-0.4-0.5c-0.2-0.4-0.2-0.8,0-1.2c0.1-0.2,0.2-0.3,0.4-0.4c0.2-0.1,0.4-0.2,0.6-0.3c0.4-0.1,0.8-0.1,1.2,0
		c0.2,0.1,0.4,0.2,0.5,0.3c0.2,0.1,0.3,0.3,0.4,0.4C-15.8,20.2-15.8,20.6-16,21z"/>
	<path d="M-64.4,13.9c-0.2,0.3-0.4,0.4-0.5,0.6c-0.1,0.1-0.2,0.2-0.1,0.3c0.4,0.6,5.6-3,6.2-4.2c1.2-2.4-1.3-2.2-5.4-6.1
		c-0.1-0.1-0.3-0.3-0.4-0.4c-0.5-0.5-1-1-1.5-1.6c-1.1-1.3-1.6-2.3-1.6-3c0-1.3,1.9-1.4,4.4-0.3c-2.4-1.6-4.1-2.2-5.1-2.2
		c-0.4,0-0.9,0.2-1.1,0.5c-0.2,0.3-0.3,0.6-0.3,1C-69.9,2.3-59.1,8.1-64.4,13.9z"/>
	<path d="M-64.4,3c-0.4,0.6,5.3,3.5,6.7,3.5c2.8,0,1.4-2.2,3.1-7.4c0.1-0.2,0.1-0.4,0.2-0.6c0.2-0.6,0.5-1.3,0.8-2.1
		c0.7-1.6,1.4-2.5,2-2.8c1.2-0.6,2.1,1,2.2,3.7c0.3-2.8,0.2-4.6-0.3-5.5c-0.2-0.4-0.6-0.7-1-0.7c-0.4,0-0.7,0-1.1,0.2
		c-3.4,1.8-3.7,13.9-11.5,11.8C-63.6,3.1-63.9,3-64.1,3C-64.2,2.9-64.3,3-64.4,3z"/>
	<path d="M-36.4,2.3c-3.3-1.9-14.1,4.1-16.4-3.4c-0.1-0.3-0.2-0.6-0.2-0.7c0-0.1-0.1-0.2-0.2-0.3c-0.7,0-0.3,6.2,0.4,7.4
		c1.5,2.3,2.7,0.1,8.1-1.3l0.6-0.1c0.7-0.2,1.4-0.3,2.2-0.4c1.7-0.2,2.9-0.1,3.5,0.2c1.2,0.7,0.2,2.3-2.1,3.8
		c2.6-1.2,4.1-2.2,4.6-3.1c0.2-0.3,0.3-0.8,0.1-1.2C-35.8,2.8-36.1,2.5-36.4,2.3z"/>
	<path d="M-44,5.7c0.2-0.2,0.4-0.4,0.6-0.5c0.1-0.1,0.2-0.2,0.1-0.3c-0.3-0.6-5.7,2.8-6.4,4c-1.3,2.4,1.2,2.3,5.2,6.3
		c0.1,0.1,0.3,0.3,0.4,0.4c0.5,0.5,1,1.1,1.5,1.7c1.1,1.4,1.5,2.4,1.5,3c0,1.3-1.9,1.3-4.4,0.1c2.3,1.7,4,2.4,5.1,2.4
		c0.4,0,0.9-0.1,1.1-0.5c0.2-0.3,0.3-0.6,0.3-1C-39,17.5-49.6,11.3-44,5.7z"/>
	<path d="M-44.7,16.6c0.1,0.1,0.2,0,0.3,0c0.3-0.6-5.4-3.3-6.8-3.3c-2.8,0.1-1.4,2.2-2.8,7.5c-0.1,0.2-0.1,0.4-0.2,0.6
		c-0.2,0.7-0.4,1.3-0.7,2.1c-0.6,1.6-1.3,2.5-1.9,2.8c-1.2,0.6-2.1-0.9-2.4-3.6c-0.2,2.8,0,4.6,0.5,5.4c0.2,0.4,0.6,0.6,1,0.7
		c0.4,0,0.7-0.1,1-0.2c3.3-1.9,3.3-14,11.1-12.2C-45.1,16.5-44.8,16.6-44.7,16.6z"/>
	<path d="M-55.8,20.3c0.1,0.3,0.2,0.6,0.3,0.7c0,0.1,0.1,0.2,0.2,0.3c0.7,0,0-6.2-0.8-7.3c-1.6-2.2-2.7,0.1-8.1,1.7l-0.6,0.2
		c-0.7,0.2-1.4,0.4-2.2,0.5c-1.7,0.3-2.9,0.3-3.5,0c-1.2-0.6-0.3-2.3,1.9-3.9c-2.6,1.3-4,2.4-4.4,3.3c-0.2,0.4-0.3,0.8-0.1,1.2
		c0.2,0.3,0.4,0.6,0.8,0.7C-68.9,19.4-58.4,12.9-55.8,20.3z"/>
</g>
</svg>
