<svg id="Layer_1" data-name="Layer 1" xmlns="http://www.w3.org/2000/svg" viewBox="0 0 500 113.21"><defs><style>.cls-1{fill:#fff;}</style></defs><title>logo_palacio do gelo</title><path class="cls-1" d="M174.29,65.37l-8.92-17.45L164.9,47a1.93,1.93,0,0,1-.13-0.69,0.58,0.58,0,0,1,.3-0.6,2.64,2.64,0,0,1,.6-0.26V44.71h-7.25v0.77a2.53,2.53,0,0,1,.64.26,0.63,0.63,0,0,1,.3.6,1.78,1.78,0,0,1-.26.81c-0.14.32-.31,0.66-0.51,1l-7.93,16.68a7.73,7.73,0,0,1-.64,1.07,1.19,1.19,0,0,1-.86.55v0.77h6.09V66.49c-0.55,0-.81-0.16-0.81-0.47a3.58,3.58,0,0,1,.43-1.29l1.54-3h10.46l1.63,3.18a2.66,2.66,0,0,1,.34,1.11,0.41,0.41,0,0,1-.26.39,1,1,0,0,1-.43.13v0.77h7.55V66.49c-0.31-.14-0.6-0.29-0.86-0.43A1.49,1.49,0,0,1,174.29,65.37Zm-16.6-6.86,4-8,3.6,8h-7.64Z" transform="translate(-0.23 -0.39)"/><path class="cls-1" d="M201,67.35a0.62,0.62,0,0,1,.43.73h0.77V62.2h-0.77A0.94,0.94,0,0,1,201,63a1.63,1.63,0,0,1-1,.3H185.78V46.25c0-.51.4-0.77,1.2-0.77V44.71H179.6v0.77q1.28,0,1.28.77V65.71c0,0.52-.43.77-1.28,0.77v0.77H200A4.83,4.83,0,0,1,201,67.35Z" transform="translate(-0.23 -0.39)"/><polygon class="cls-1" points="225.08 36.73 219.29 36.73 215.39 42.9 218.99 42.9 225.08 36.73"/><path class="cls-1" d="M148.43,51.4q0-3.65-2.36-5.15a11.74,11.74,0,0,0-6.47-1.54H124.51v0.77c1.06,0,1.58.26,1.58,0.77V65.71c0,0.52-.53.77-1.58,0.77v0.77h7.85V66.49c-0.92,0-1.37-.26-1.37-0.77V58.08h8.62a12,12,0,0,0,6.47-1.5Q148.43,55,148.43,51.4Zm-5.92,2.19a4.82,4.82,0,0,1-2.4.56H131V48.65h9.13a4.82,4.82,0,0,1,2.4.56,2.25,2.25,0,0,1,1,2.19A2.25,2.25,0,0,1,142.52,53.58Z" transform="translate(-0.23 -0.39)"/><path class="cls-1" d="M212.05,66.49c-0.55,0-.81-0.16-0.81-0.47a3.64,3.64,0,0,1,.43-1.29l1.54-3h10.46l1.63,3.18a2.63,2.63,0,0,1,.34,1.11,0.41,0.41,0,0,1-.26.39,1,1,0,0,1-.43.13v0.77h7.55V66.49c-0.31-.14-0.6-0.29-0.86-0.43a1.48,1.48,0,0,1-.56-0.69l-8.92-17.45L221.7,47a2,2,0,0,1-.13-0.69,0.58,0.58,0,0,1,.3-0.6,2.68,2.68,0,0,1,.6-0.26V44.71h-7.25v0.77a2.48,2.48,0,0,1,.64.26,0.63,0.63,0,0,1,.3.6,1.76,1.76,0,0,1-.26.81c-0.14.32-.31,0.66-0.51,1l-7.93,16.68a8,8,0,0,1-.65,1.07,1.19,1.19,0,0,1-.86.55v0.77h6.09V66.49Zm6.48-15.95,3.6,8H214.5Z" transform="translate(-0.23 -0.39)"/><path class="cls-1" d="M440.74,63a1.63,1.63,0,0,1-1,.3H425.39V57.4h8.4a2.47,2.47,0,0,1,1.33.3,1.31,1.31,0,0,1,.47,1.24h0.77V52.25h-0.77a1.3,1.3,0,0,1-.47,1.24,3.25,3.25,0,0,1-1.33.22h-8.4V48.39h13.89a2.2,2.2,0,0,1,1.24.26,0.73,0.73,0,0,1,.38.69h0.77V43.68h-0.77a0.93,0.93,0,0,1-.38.77,2.17,2.17,0,0,1-1.24.26H419.73v0.77a0.7,0.7,0,0,1,.51.21,0.63,0.63,0,0,1,.26.56V65.71a0.75,0.75,0,0,1-.26.6,0.8,0.8,0,0,1-.51.17v0.77h20a4.81,4.81,0,0,1,1,.09,0.62,0.62,0,0,1,.43.73h0.77V62.2h-0.77A0.93,0.93,0,0,1,440.74,63Z" transform="translate(-0.23 -0.39)"/><path class="cls-1" d="M263.86,45.48c0.75,0,1.12.26,1.12,0.77V65.71c0,0.52-.37.77-1.12,0.77v0.77H271V66.49c-0.74,0-1.11-.26-1.11-0.77V46.25q0-.77,1.11-0.77V44.71h-7.12v0.77Z" transform="translate(-0.23 -0.39)"/><path class="cls-1" d="M297.71,47.28a14.61,14.61,0,0,0-4.46-2.1,16.16,16.16,0,0,0-9.6,0,14.61,14.61,0,0,0-4.46,2.1,11.39,11.39,0,0,0-3.3,3.6,9.75,9.75,0,0,0-1.29,5.1,10,10,0,0,0,1.29,5.15,11.59,11.59,0,0,0,3.3,3.56,13.73,13.73,0,0,0,4.46,2.06,18.22,18.22,0,0,0,9.6,0,13.72,13.72,0,0,0,4.46-2.06,11.65,11.65,0,0,0,3.3-3.56A10,10,0,0,0,302.29,56a9.75,9.75,0,0,0-1.28-5.1A11.45,11.45,0,0,0,297.71,47.28ZM296.76,59.2a7.81,7.81,0,0,1-2.14,2.4,9.92,9.92,0,0,1-2.91,1.46,10.6,10.6,0,0,1-6.52,0,10.57,10.57,0,0,1-3-1.46,8.09,8.09,0,0,1-2.1-2.4,6.75,6.75,0,0,1,0-6.43,7.6,7.6,0,0,1,2.1-2.36,10,10,0,0,1,3-1.5,10.6,10.6,0,0,1,6.52,0,9.41,9.41,0,0,1,2.91,1.5,7.35,7.35,0,0,1,2.14,2.36A6.76,6.76,0,0,1,296.76,59.2Z" transform="translate(-0.23 -0.39)"/><path class="cls-1" d="M368.79,47.28a14.63,14.63,0,0,0-4.46-2.1,16.16,16.16,0,0,0-9.6,0,14.57,14.57,0,0,0-4.46,2.1,11.42,11.42,0,0,0-3.3,3.6,9.74,9.74,0,0,0-1.29,5.1A10,10,0,0,0,347,61.13a11.61,11.61,0,0,0,3.3,3.56,13.69,13.69,0,0,0,4.46,2.06,18.22,18.22,0,0,0,9.6,0,13.74,13.74,0,0,0,4.46-2.06,11.62,11.62,0,0,0,3.3-3.56A10,10,0,0,0,373.37,56a9.73,9.73,0,0,0-1.28-5.1A11.42,11.42,0,0,0,368.79,47.28ZM367.84,59.2a7.83,7.83,0,0,1-2.14,2.4,10,10,0,0,1-2.92,1.46,10.6,10.6,0,0,1-6.51,0,10.53,10.53,0,0,1-3-1.46,8.06,8.06,0,0,1-2.1-2.4,6.77,6.77,0,0,1,0-6.43,7.57,7.57,0,0,1,2.1-2.36,10,10,0,0,1,3-1.5,10.6,10.6,0,0,1,6.51,0,9.46,9.46,0,0,1,2.92,1.5,7.38,7.38,0,0,1,2.14,2.36A6.74,6.74,0,0,1,367.84,59.2Z" transform="translate(-0.23 -0.39)"/><path class="cls-1" d="M339.11,47.49a9.52,9.52,0,0,0-3.56-2.1,13.5,13.5,0,0,0-4.37-.69H316.94v0.77a0.79,0.79,0,0,1,1,.77V65.71a0.79,0.79,0,0,1-1,.77v0.77h14.24a13.44,13.44,0,0,0,4.37-.69,9.75,9.75,0,0,0,3.56-2.06A9.89,9.89,0,0,0,341.47,61a13.5,13.5,0,0,0,.86-5,13.13,13.13,0,0,0-.86-5A9.38,9.38,0,0,0,339.11,47.49Zm-2.19,12.18A5.28,5.28,0,0,1,335.46,62a5.55,5.55,0,0,1-2.49,1.2,16,16,0,0,1-3.52.34h-6.65V48.39h6.65a15.83,15.83,0,0,1,3.52.34A5.39,5.39,0,0,1,335.46,50a5,5,0,0,1,1.46,2.32,11.2,11.2,0,0,1,.51,3.69A11.22,11.22,0,0,1,336.92,59.67Z" transform="translate(-0.23 -0.39)"/><path class="cls-1" d="M256,59.63a0.79,0.79,0,0,1,.17.51,1.71,1.71,0,0,1-.86,1.2,9.82,9.82,0,0,1-2.06,1.11,20.79,20.79,0,0,1-2.75.81,14.62,14.62,0,0,1-2.87.3,11.76,11.76,0,0,1-3.47-.51,8.9,8.9,0,0,1-2.87-1.5,7.55,7.55,0,0,1-1.93-2.4,7.28,7.28,0,0,1-.73-3.3,7,7,0,0,1,.73-3.26,7.43,7.43,0,0,1,1.93-2.44,8.89,8.89,0,0,1,2.87-1.5,11.73,11.73,0,0,1,3.47-.52,11.45,11.45,0,0,1,2.31.26,18.84,18.84,0,0,1,2.4.64,8.2,8.2,0,0,1,1.93.9,1.61,1.61,0,0,1,.86.94,3.41,3.41,0,0,1,.09.56l0.43,0.3,3.35-5.19L258.41,46l-0.26.34a0.38,0.38,0,0,1-.34.22,3.75,3.75,0,0,1-.95-0.34,17.37,17.37,0,0,0-2.1-.73c-0.88-.26-1.93-0.5-3.13-0.73a20.54,20.54,0,0,0-3.94-.35,18.4,18.4,0,0,0-5.19.73,13.62,13.62,0,0,0-4.42,2.19,11.32,11.32,0,0,0-3,13.64,10.79,10.79,0,0,0,3,3.6,13.45,13.45,0,0,0,4.42,2.1,19.39,19.39,0,0,0,5.19.69,16.1,16.1,0,0,0,3.94-.47A20.48,20.48,0,0,0,255,65.8c1-.43,1.82-0.81,2.44-1.16a4.24,4.24,0,0,1,1.24-.51l0.47,0,0.34-.34-2.83-4.55Z" transform="translate(-0.23 -0.39)"/><path class="cls-1" d="M469.71,63a1.62,1.62,0,0,1-1,.3H454.45V46.25q0-.77,1.2-0.77V44.71h-7.37v0.77c0.86,0,1.29.26,1.29,0.77V65.71c0,0.52-.43.77-1.29,0.77v0.77h20.41a4.79,4.79,0,0,1,1,.09,0.62,0.62,0,0,1,.43.73h0.77V62.2h-0.77A0.93,0.93,0,0,1,469.71,63Z" transform="translate(-0.23 -0.39)"/><path class="cls-1" d="M401.68,55.85a1.3,1.3,0,0,1-.39-0.94h-0.77V60.4h0.77a1.7,1.7,0,0,1,.39-1.12,1.36,1.36,0,0,1,.9-0.26h5.49v3.69a30.21,30.21,0,0,1-3.34.9,22.38,22.38,0,0,1-4.38.39,12.05,12.05,0,0,1-3.17-.43,8.73,8.73,0,0,1-2.78-1.42,7.26,7.26,0,0,1-2-2.44,8.43,8.43,0,0,1-.73-3.64,8.25,8.25,0,0,1,.73-3.64,7.32,7.32,0,0,1,2-2.45,8.23,8.23,0,0,1,2.78-1.37,11.18,11.18,0,0,1,3.17-.47,22.59,22.59,0,0,1,2.7.17,14,14,0,0,1,2.66.56,6.87,6.87,0,0,1,2,.86,1.42,1.42,0,0,1,.82,1.16,1.64,1.64,0,0,1-.09.51l0.86,0.26L411.84,46l-0.51-.3a3.84,3.84,0,0,0-.43.3,0.94,0.94,0,0,1-.6.17,6.17,6.17,0,0,1-1.11-.26,20.05,20.05,0,0,0-2.19-.6,30.77,30.77,0,0,0-3-.6,24.41,24.41,0,0,0-3.6-.26,17.52,17.52,0,0,0-5.49.82,11.85,11.85,0,0,0-4.2,2.27,10.52,10.52,0,0,0-2.75,3.64A11.61,11.61,0,0,0,387,56a11.9,11.9,0,0,0,.94,4.84,10.63,10.63,0,0,0,2.75,3.6,12.32,12.32,0,0,0,4.2,2.23,19.53,19.53,0,0,0,5.49.73c1,0,2.07,0,3.13-.09a20,20,0,0,0,3.22-.43,21,21,0,0,0,3.17-1,15.42,15.42,0,0,0,3-1.63V63.53l-0.6-.3a0.56,0.56,0,0,1-.26-0.56V57.83a0.92,0.92,0,0,1,.21-0.73,2.8,2.8,0,0,1,1.07-.3V56H402.58A1.87,1.87,0,0,1,401.68,55.85Z" transform="translate(-0.23 -0.39)"/><path class="cls-1" d="M498.94,50.88a11.41,11.41,0,0,0-3.3-3.6,14.64,14.64,0,0,0-4.46-2.1,16.16,16.16,0,0,0-9.6,0,14.62,14.62,0,0,0-4.46,2.1,11.42,11.42,0,0,0-3.3,3.6,9.73,9.73,0,0,0-1.29,5.1,10,10,0,0,0,1.29,5.15,11.61,11.61,0,0,0,3.3,3.56,13.73,13.73,0,0,0,4.46,2.06,18.22,18.22,0,0,0,9.6,0,13.75,13.75,0,0,0,4.46-2.06,11.61,11.61,0,0,0,3.3-3.56A10,10,0,0,0,500.23,56,9.7,9.7,0,0,0,498.94,50.88ZM494.7,59.2a7.81,7.81,0,0,1-2.14,2.4,10,10,0,0,1-2.92,1.46,10.6,10.6,0,0,1-6.52,0,10.55,10.55,0,0,1-3-1.46,8.11,8.11,0,0,1-2.1-2.4,6.77,6.77,0,0,1,0-6.43,7.62,7.62,0,0,1,2.1-2.36,10,10,0,0,1,3-1.5,10.6,10.6,0,0,1,6.52,0,9.44,9.44,0,0,1,2.92,1.5,7.36,7.36,0,0,1,2.14,2.36A6.75,6.75,0,0,1,494.7,59.2Z" transform="translate(-0.23 -0.39)"/><path class="cls-1" d="M135.73,87.75a4.76,4.76,0,0,0-1.58-.58,13.35,13.35,0,0,0-1.8-.27l-1.82-.12a10.67,10.67,0,0,1-1.58-.2,3.16,3.16,0,0,1-1.12-.44,1,1,0,0,1-.41-0.87,0.88,0.88,0,0,1,.29-0.68,2.32,2.32,0,0,1,.78-0.46,4.57,4.57,0,0,1,1-.24,6.7,6.7,0,0,1,1.12-.1,7.19,7.19,0,0,1,1.41.15,7.8,7.8,0,0,1,1.31.34,4.86,4.86,0,0,1,1,.51,2,2,0,0,1,.66.56,1.38,1.38,0,0,1,.2.56l0.24,0.1,1.67-3-0.29-.19a0.67,0.67,0,0,1-.48.14,2.26,2.26,0,0,1-.8-0.19c-0.31-.13-0.7-0.26-1.16-0.41a15.39,15.39,0,0,0-1.63-.41,11.17,11.17,0,0,0-2.24-.2,8.46,8.46,0,0,0-2.62.36,5.83,5.83,0,0,0-1.85.9A3.72,3.72,0,0,0,125,84.25a3.49,3.49,0,0,0-.34,1.48,3.57,3.57,0,0,0,.41,1.82,3.46,3.46,0,0,0,1.12,1.09,5.34,5.34,0,0,0,1.58.56,16.71,16.71,0,0,0,1.82.24l1.8,0.12a11.16,11.16,0,0,1,1.58.15,3,3,0,0,1,1.12.39,0.89,0.89,0,0,1,.44.83,1.06,1.06,0,0,1-.46.9,3.62,3.62,0,0,1-1.09.53,7,7,0,0,1-1.29.27c-0.44,0-.79,0-1.07,0a7.44,7.44,0,0,1-1.26-.12A11.56,11.56,0,0,1,128,92.2a8.36,8.36,0,0,1-1.14-.49,1.84,1.84,0,0,1-.66-0.58,0.77,0.77,0,0,1-.1-0.39l-0.24-.12-1.33,2.94,0.34,0.19a0.4,0.4,0,0,1,.31-0.19,1.38,1.38,0,0,1,.63.19l1,0.41a10.93,10.93,0,0,0,1.55.39,15.56,15.56,0,0,0,2.33.15,16.77,16.77,0,0,0,2.14-.15,7.73,7.73,0,0,0,2.16-.63,4.57,4.57,0,0,0,1.65-1.27,3.08,3.08,0,0,0,.68-2.06,3.22,3.22,0,0,0-.44-1.78A3,3,0,0,0,135.73,87.75Z" transform="translate(-0.23 -0.39)"/><path class="cls-1" d="M190.89,82.72a6.65,6.65,0,0,0-3.67-.87h-8.55v0.44c0.6,0,.9.15,0.9,0.44v11c0,0.29-.3.44-0.9,0.44v0.44h4.45V94.19c-0.52,0-.78-0.14-0.78-0.44V89.43h4.88a6.8,6.8,0,0,0,3.67-.85,3.24,3.24,0,0,0,1.34-2.94A3.18,3.18,0,0,0,190.89,82.72Zm-2,4.16a2.76,2.76,0,0,1-1.36.31h-5.18V84.08h5.18a2.73,2.73,0,0,1,1.36.32A1.61,1.61,0,0,1,188.87,86.88Z" transform="translate(-0.23 -0.39)"/><path class="cls-1" d="M207.09,82.72a6.65,6.65,0,0,0-3.67-.87h-8.55v0.44c0.6,0,.9.15,0.9,0.44v11c0,0.29-.3.44-0.9,0.44v0.44h4.45V94.19c-0.51,0-.78-0.14-0.78-0.44V89.43h4.88a6.8,6.8,0,0,0,3.67-.85,3.25,3.25,0,0,0,1.34-2.94A3.19,3.19,0,0,0,207.09,82.72Zm-2,4.16a2.75,2.75,0,0,1-1.36.31h-5.17V84.08h5.17a2.73,2.73,0,0,1,1.36.32A1.6,1.6,0,0,1,205.08,86.88Z" transform="translate(-0.23 -0.39)"/><path class="cls-1" d="M245.63,88.16a0.76,0.76,0,0,1-.22-0.53H245v3.11h0.44a1,1,0,0,1,.22-0.63,0.78,0.78,0,0,1,.51-0.15h3.11v2.09a17.12,17.12,0,0,1-1.89.51,12.6,12.6,0,0,1-2.48.22,6.83,6.83,0,0,1-1.8-.24,5,5,0,0,1-1.58-.8,4.17,4.17,0,0,1-1.12-1.39,4.8,4.8,0,0,1-.41-2.06,4.72,4.72,0,0,1,.41-2.07,4.13,4.13,0,0,1,1.12-1.38,4.6,4.6,0,0,1,1.58-.78,6.26,6.26,0,0,1,1.8-.27,12.43,12.43,0,0,1,1.53.1,8.19,8.19,0,0,1,1.51.31,3.87,3.87,0,0,1,1.14.49,0.8,0.8,0,0,1,.46.65,0.87,0.87,0,0,1,0,.29L250,85.78l1.43-3.21-0.29-.17-0.25.17a0.52,0.52,0,0,1-.34.1,3.66,3.66,0,0,1-.63-0.14,10.73,10.73,0,0,0-1.24-.34,16,16,0,0,0-1.72-.34,13.87,13.87,0,0,0-2-.15,9.89,9.89,0,0,0-3.11.46,6.78,6.78,0,0,0-2.38,1.29,6,6,0,0,0-1.55,2.06,6.58,6.58,0,0,0-.54,2.72,6.74,6.74,0,0,0,.54,2.74,6,6,0,0,0,1.55,2,7,7,0,0,0,2.38,1.26,11.1,11.1,0,0,0,3.11.41c0.58,0,1.17,0,1.78,0a11.68,11.68,0,0,0,1.82-.24,11.39,11.39,0,0,0,1.8-.58,8.55,8.55,0,0,0,1.7-.92V92.52l-0.34-.17a0.31,0.31,0,0,1-.15-0.32V89.28a0.52,0.52,0,0,1,.12-0.41,1.54,1.54,0,0,1,.61-0.17V88.26h-6.08A1.06,1.06,0,0,1,245.63,88.16Z" transform="translate(-0.23 -0.39)"/><path class="cls-1" d="M151.84,82.28a0.44,0.44,0,0,1,.54.44v4.13h-7.82V82.72a0.38,0.38,0,0,1,.12-0.32,0.5,0.5,0,0,1,.32-0.12V81.85h-3.67v0.44a0.4,0.4,0,0,1,.46.44v11a0.4,0.4,0,0,1-.46.44v0.44H145V94.19a0.56,0.56,0,0,1-.32-0.1,0.46,0.46,0,0,1-.12-0.34V89.18h7.82v4.57a0.43,0.43,0,0,1-.54.44v0.44h3.74V94.19a0.57,0.57,0,0,1-.31-0.1,0.46,0.46,0,0,1-.12-0.34v-11a0.38,0.38,0,0,1,.12-0.32,0.5,0.5,0,0,1,.31-0.12V81.85h-3.74v0.44Z" transform="translate(-0.23 -0.39)"/><path class="cls-1" d="M211.25,82.28c0.42,0,.63.15,0.63,0.44v11c0,0.29-.21.44-0.63,0.44v0.44h4V94.19c-0.42,0-.63-0.14-0.63-0.44v-11c0-.29.21-0.44,0.63-0.44V81.85h-4v0.44Z" transform="translate(-0.23 -0.39)"/><path class="cls-1" d="M230.32,82.28c0.42,0,.63.15,0.63,0.44v7.73l-7-7.24a1.45,1.45,0,0,1-.48-0.68,0.2,0.2,0,0,1,.19-0.25V81.85h-4.16v0.44a0.4,0.4,0,0,1,.46.44v11a0.4,0.4,0,0,1-.46.44v0.44h3.6V94.19c-0.38,0-.56-0.14-0.56-0.44V85.69L230,93.41a1.11,1.11,0,0,1,.39.56c0,0.15-.11.22-0.32,0.22v0.44H234V94.19a0.39,0.39,0,0,1-.46-0.44v-11a0.4,0.4,0,0,1,.46-0.44V81.85h-3.67v0.44Z" transform="translate(-0.23 -0.39)"/><path class="cls-1" d="M172.62,83.31a8.22,8.22,0,0,0-2.53-1.19,9.15,9.15,0,0,0-5.44,0,8.19,8.19,0,0,0-2.53,1.19,6.45,6.45,0,0,0-1.87,2,5.53,5.53,0,0,0-.73,2.89,5.65,5.65,0,0,0,.73,2.91,6.5,6.5,0,0,0,1.87,2,7.82,7.82,0,0,0,2.53,1.17,10.36,10.36,0,0,0,5.44,0,7.86,7.86,0,0,0,2.53-1.17,6.55,6.55,0,0,0,1.87-2,5.63,5.63,0,0,0,.73-2.91,5.51,5.51,0,0,0-.73-2.89A6.5,6.5,0,0,0,172.62,83.31Zm-0.54,6.75a4.4,4.4,0,0,1-1.22,1.36,5.77,5.77,0,0,1-1.65.83,6,6,0,0,1-3.69,0,6.07,6.07,0,0,1-1.67-.83,4.54,4.54,0,0,1-1.19-1.36,3.82,3.82,0,0,1,0-3.64,4.23,4.23,0,0,1,1.19-1.33,5.63,5.63,0,0,1,1.67-.85,6,6,0,0,1,3.69,0,5.36,5.36,0,0,1,1.65.85,4.11,4.11,0,0,1,1.22,1.33A3.82,3.82,0,0,1,172.08,90.06Z" transform="translate(-0.23 -0.39)"/><path class="cls-1" d="M26.43,68.86c-0.63.78-1.23,1.3-1.61,1.71a0.89,0.89,0,0,0-.38.95c1.12,1.74,16.76-9,18.68-12.71,3.72-7.25-4-6.74-16.23-18.23q-0.66-.62-1.34-1.29c-1.47-1.45-3-3.08-4.58-4.92-3.41-4-4.87-6.95-4.87-9,0-4,5.69-4.14,13.24-.78C22.1,19.92,17,18,13.88,18.08a3.89,3.89,0,0,0-3.33,1.58,5.07,5.07,0,0,0-.89,3C9.91,33.86,42.64,51.37,26.43,68.86Z" transform="translate(-0.23 -0.39)"/><path class="cls-1" d="M26.58,36.06c-1.08,1.76,15.81,10.46,20.1,10.43C55,46.43,51,39.95,56,24.12c0.18-.57.36-1.15,0.57-1.75,0.66-1.94,1.45-4,2.41-6.21,2.08-4.77,4.14-7.38,6-8.29,3.62-1.8,6.37,3.05,6.73,11.13,1-8.43.5-13.71-1-16.4a3.86,3.86,0,0,0-3-2.17,5.42,5.42,0,0,0-3.16.6C54.4,6.32,53.28,42.69,29.91,36.57c-1-.2-1.75-0.48-2.3-0.62A0.93,0.93,0,0,0,26.58,36.06Z" transform="translate(-0.23 -0.39)"/><path class="cls-1" d="M110.77,33.87c-9.91-5.65-42.35,12.37-49.16-10.25-0.35-.93-0.49-1.7-0.66-2.23a0.9,0.9,0,0,0-.63-0.81c-2.1,0-.93,18.6,1.34,22.16,4.39,6.88,8,.19,24.44-3.94l1.83-.43c2-.46,4.26-0.88,6.69-1.23,5.26-.75,8.62-0.41,10.38.64,3.46,2.07.64,6.89-6.24,11.4,7.92-3.54,12.27-6.73,13.83-9.4a3.68,3.68,0,0,0,.36-3.59A5.22,5.22,0,0,0,110.77,33.87Z" transform="translate(-0.23 -0.39)"/><path class="cls-1" d="M87.86,44c0.66-.75,1.28-1.25,1.68-1.65a0.88,0.88,0,0,0,.41-0.93c-1-1.78-17.09,8.34-19.16,12-4,7.11,3.75,6.88,15.51,18.82,0.42,0.43.85,0.87,1.29,1.34C89,75.09,90.47,76.78,92,78.67c3.25,4.1,4.6,7.12,4.52,9.12-0.15,4-5.84,3.93-13.26.3,7.06,5,12,7.12,15.2,7.13a3.9,3.9,0,0,0,3.39-1.45,5.07,5.07,0,0,0,1-3C103,79.6,71,60.89,87.86,44Z" transform="translate(-0.23 -0.39)"/><path class="cls-1" d="M85.92,76.83a0.93,0.93,0,0,0,1-.14c1-1.79-16.14-10-20.43-9.81-8.31.32-4.12,6.68-8.55,22.65-0.16.57-.33,1.16-0.51,1.76-0.6,2-1.32,4-2.21,6.28-1.93,4.83-3.9,7.51-5.7,8.48C46,108,43.08,103.2,42.45,95.13c-0.75,8.46-.05,13.72,1.56,16.37a3.86,3.86,0,0,0,3,2.08,5.4,5.4,0,0,0,3.14-.7c9.93-5.6,9.88-42,33.43-36.6C84.61,76.44,85.37,76.7,85.92,76.83Z" transform="translate(-0.23 -0.39)"/><path class="cls-1" d="M52.54,87.88c0.39,0.91.58,1.67,0.76,2.2a0.91,0.91,0,0,0,.67.78c2.1-.12,0-18.63-2.47-22.07-4.74-6.66-8,.19-24.21,5.12l-1.8.52c-2,.56-4.22,1.08-6.62,1.55-5.22,1-8.59.82-10.39-.14-3.56-1.9-1-6.85,5.65-11.69C6.4,68.07,2.22,71.46.79,74.21a3.68,3.68,0,0,0-.18,3.6A5.23,5.23,0,0,0,2.91,80C13.09,85.18,44.57,65.62,52.54,87.88Z" transform="translate(-0.23 -0.39)"/></svg>